<mxfile host="app.diagrams.net" modified="2023-08-26T04:00:52.877Z" agent="Mozilla/5.0 (Windows NT 10.0; Win64; x64) AppleWebKit/537.36 (KHTML, like Gecko) Chrome/116.0.0.0 Safari/537.36" etag="iOUgzav0NuxVIoHq3o8u" version="21.6.9" type="github">
  <diagram id="6a731a19-8d31-9384-78a2-239565b7b9f0" name="Page-1">
    <mxGraphModel dx="1615" dy="871" grid="0" gridSize="10" guides="1" tooltips="1" connect="1" arrows="1" fold="1" page="1" pageScale="1" pageWidth="1169" pageHeight="827" background="none" math="0" shadow="0">
      <root>
        <mxCell id="0" />
        <mxCell id="1" parent="0" />
        <mxCell id="K63nwWzMZnfOBrB3xN3w-1780" style="edgeStyle=orthogonalEdgeStyle;rounded=0;orthogonalLoop=1;jettySize=auto;html=1;" edge="1" parent="1" target="K63nwWzMZnfOBrB3xN3w-1781">
          <mxGeometry relative="1" as="geometry">
            <mxPoint x="607" y="99" as="targetPoint" />
            <mxPoint x="220.99999999999977" y="99" as="sourcePoint" />
          </mxGeometry>
        </mxCell>
        <mxCell id="K63nwWzMZnfOBrB3xN3w-1795" style="edgeStyle=orthogonalEdgeStyle;rounded=0;orthogonalLoop=1;jettySize=auto;html=1;exitX=0.5;exitY=1;exitDx=0;exitDy=0;entryX=0;entryY=0.5;entryDx=0;entryDy=0;" edge="1" parent="1" source="1749" target="K63nwWzMZnfOBrB3xN3w-1792">
          <mxGeometry relative="1" as="geometry">
            <Array as="points">
              <mxPoint x="145" y="486" />
            </Array>
          </mxGeometry>
        </mxCell>
        <mxCell id="K63nwWzMZnfOBrB3xN3w-1799" style="edgeStyle=orthogonalEdgeStyle;rounded=0;orthogonalLoop=1;jettySize=auto;html=1;exitX=0.5;exitY=1;exitDx=0;exitDy=0;entryX=0;entryY=0.5;entryDx=0;entryDy=0;" edge="1" parent="1" source="1749" target="K63nwWzMZnfOBrB3xN3w-1798">
          <mxGeometry relative="1" as="geometry">
            <Array as="points">
              <mxPoint x="145" y="678" />
            </Array>
          </mxGeometry>
        </mxCell>
        <mxCell id="1749" value="ARGO&lt;br&gt;User" style="rounded=1;whiteSpace=wrap;html=1;shadow=0;labelBackgroundColor=none;strokeColor=none;strokeWidth=3;fillColor=#2F5B7C;fontFamily=Helvetica;fontSize=16;fontColor=#FFFFFF;align=center;fontStyle=1;spacing=5;arcSize=7;perimeterSpacing=2;" parent="1" vertex="1">
          <mxGeometry x="70" y="64" width="150" height="70" as="geometry" />
        </mxCell>
        <mxCell id="K63nwWzMZnfOBrB3xN3w-1783" style="edgeStyle=orthogonalEdgeStyle;rounded=0;orthogonalLoop=1;jettySize=auto;html=1;exitX=1;exitY=0.5;exitDx=0;exitDy=0;entryX=0;entryY=0.5;entryDx=0;entryDy=0;" edge="1" parent="1" source="K63nwWzMZnfOBrB3xN3w-1781" target="K63nwWzMZnfOBrB3xN3w-1782">
          <mxGeometry relative="1" as="geometry" />
        </mxCell>
        <mxCell id="K63nwWzMZnfOBrB3xN3w-1786" style="edgeStyle=orthogonalEdgeStyle;rounded=0;orthogonalLoop=1;jettySize=auto;html=1;exitX=0.5;exitY=1;exitDx=0;exitDy=0;entryX=0;entryY=0.5;entryDx=0;entryDy=0;" edge="1" parent="1" source="K63nwWzMZnfOBrB3xN3w-1781" target="K63nwWzMZnfOBrB3xN3w-1784">
          <mxGeometry relative="1" as="geometry">
            <Array as="points">
              <mxPoint x="474" y="194" />
            </Array>
          </mxGeometry>
        </mxCell>
        <mxCell id="K63nwWzMZnfOBrB3xN3w-1788" style="edgeStyle=orthogonalEdgeStyle;rounded=0;orthogonalLoop=1;jettySize=auto;html=1;exitX=0.5;exitY=1;exitDx=0;exitDy=0;entryX=0;entryY=0.5;entryDx=0;entryDy=0;" edge="1" parent="1" source="K63nwWzMZnfOBrB3xN3w-1781" target="K63nwWzMZnfOBrB3xN3w-1787">
          <mxGeometry relative="1" as="geometry">
            <Array as="points">
              <mxPoint x="474" y="289" />
            </Array>
          </mxGeometry>
        </mxCell>
        <mxCell id="K63nwWzMZnfOBrB3xN3w-1791" style="edgeStyle=orthogonalEdgeStyle;rounded=0;orthogonalLoop=1;jettySize=auto;html=1;exitX=0.5;exitY=1;exitDx=0;exitDy=0;entryX=0;entryY=0.5;entryDx=0;entryDy=0;" edge="1" parent="1" source="K63nwWzMZnfOBrB3xN3w-1781" target="K63nwWzMZnfOBrB3xN3w-1789">
          <mxGeometry relative="1" as="geometry">
            <Array as="points">
              <mxPoint x="474" y="384" />
            </Array>
          </mxGeometry>
        </mxCell>
        <mxCell id="K63nwWzMZnfOBrB3xN3w-1781" value="Mentor 멘토&lt;br&gt;base/verification&lt;br&gt;/master" style="rounded=1;whiteSpace=wrap;html=1;shadow=0;labelBackgroundColor=none;strokeColor=none;strokeWidth=3;fillColor=#2F5B7C;fontFamily=Helvetica;fontSize=16;fontColor=#FFFFFF;align=center;fontStyle=1;spacing=5;arcSize=7;perimeterSpacing=2;" vertex="1" parent="1">
          <mxGeometry x="399" y="64" width="150" height="70" as="geometry" />
        </mxCell>
        <mxCell id="K63nwWzMZnfOBrB3xN3w-1782" value="현지 유학생 출신" style="rounded=1;whiteSpace=wrap;html=1;shadow=0;labelBackgroundColor=none;strokeColor=none;strokeWidth=3;fillColor=#2F5B7C;fontFamily=Helvetica;fontSize=16;fontColor=#FFFFFF;align=center;fontStyle=1;spacing=5;arcSize=7;perimeterSpacing=2;" vertex="1" parent="1">
          <mxGeometry x="712" y="64" width="150" height="70" as="geometry" />
        </mxCell>
        <mxCell id="K63nwWzMZnfOBrB3xN3w-1784" value="자녀를 유학 보낸 &lt;br&gt;경험이 있는 학부모" style="rounded=1;whiteSpace=wrap;html=1;shadow=0;labelBackgroundColor=none;strokeColor=none;strokeWidth=3;fillColor=#2F5B7C;fontFamily=Helvetica;fontSize=16;fontColor=#FFFFFF;align=center;fontStyle=1;spacing=5;arcSize=7;perimeterSpacing=2;" vertex="1" parent="1">
          <mxGeometry x="712" y="159" width="150" height="70" as="geometry" />
        </mxCell>
        <mxCell id="K63nwWzMZnfOBrB3xN3w-1787" value="대학교 교직원" style="rounded=1;whiteSpace=wrap;html=1;shadow=0;labelBackgroundColor=none;strokeColor=none;strokeWidth=3;fillColor=#2F5B7C;fontFamily=Helvetica;fontSize=16;fontColor=#FFFFFF;align=center;fontStyle=1;spacing=5;arcSize=7;perimeterSpacing=2;" vertex="1" parent="1">
          <mxGeometry x="712" y="254" width="150" height="70" as="geometry" />
        </mxCell>
        <mxCell id="K63nwWzMZnfOBrB3xN3w-1789" value="유학원 상담사" style="rounded=1;whiteSpace=wrap;html=1;shadow=0;labelBackgroundColor=none;strokeColor=none;strokeWidth=3;fillColor=#2F5B7C;fontFamily=Helvetica;fontSize=16;fontColor=#FFFFFF;align=center;fontStyle=1;spacing=5;arcSize=7;perimeterSpacing=2;" vertex="1" parent="1">
          <mxGeometry x="712" y="348" width="150" height="70" as="geometry" />
        </mxCell>
        <mxCell id="K63nwWzMZnfOBrB3xN3w-1796" style="edgeStyle=orthogonalEdgeStyle;rounded=0;orthogonalLoop=1;jettySize=auto;html=1;exitX=1;exitY=0.5;exitDx=0;exitDy=0;entryX=0;entryY=0.5;entryDx=0;entryDy=0;" edge="1" parent="1" source="K63nwWzMZnfOBrB3xN3w-1792" target="K63nwWzMZnfOBrB3xN3w-1793">
          <mxGeometry relative="1" as="geometry" />
        </mxCell>
        <mxCell id="K63nwWzMZnfOBrB3xN3w-1797" style="edgeStyle=orthogonalEdgeStyle;rounded=0;orthogonalLoop=1;jettySize=auto;html=1;exitX=0.5;exitY=1;exitDx=0;exitDy=0;entryX=0;entryY=0.5;entryDx=0;entryDy=0;" edge="1" parent="1" source="K63nwWzMZnfOBrB3xN3w-1792" target="K63nwWzMZnfOBrB3xN3w-1794">
          <mxGeometry relative="1" as="geometry">
            <Array as="points">
              <mxPoint x="474" y="582" />
            </Array>
          </mxGeometry>
        </mxCell>
        <mxCell id="K63nwWzMZnfOBrB3xN3w-1792" value="Mentee" style="rounded=1;whiteSpace=wrap;html=1;shadow=0;labelBackgroundColor=none;strokeColor=none;strokeWidth=3;fillColor=#2F5B7C;fontFamily=Helvetica;fontSize=16;fontColor=#FFFFFF;align=center;fontStyle=1;spacing=5;arcSize=7;perimeterSpacing=2;" vertex="1" parent="1">
          <mxGeometry x="399" y="451" width="150" height="70" as="geometry" />
        </mxCell>
        <mxCell id="K63nwWzMZnfOBrB3xN3w-1793" value="유학 준비생" style="rounded=1;whiteSpace=wrap;html=1;shadow=0;labelBackgroundColor=none;strokeColor=none;strokeWidth=3;fillColor=#2F5B7C;fontFamily=Helvetica;fontSize=16;fontColor=#FFFFFF;align=center;fontStyle=1;spacing=5;arcSize=7;perimeterSpacing=2;" vertex="1" parent="1">
          <mxGeometry x="712" y="451" width="150" height="70" as="geometry" />
        </mxCell>
        <mxCell id="K63nwWzMZnfOBrB3xN3w-1794" value="유학 준비생 자녀를&lt;br&gt;둔 학부모" style="rounded=1;whiteSpace=wrap;html=1;shadow=0;labelBackgroundColor=none;strokeColor=none;strokeWidth=3;fillColor=#2F5B7C;fontFamily=Helvetica;fontSize=16;fontColor=#FFFFFF;align=center;fontStyle=1;spacing=5;arcSize=7;perimeterSpacing=2;" vertex="1" parent="1">
          <mxGeometry x="712" y="546" width="150" height="70" as="geometry" />
        </mxCell>
        <mxCell id="K63nwWzMZnfOBrB3xN3w-1798" value="관리자" style="rounded=1;whiteSpace=wrap;html=1;shadow=0;labelBackgroundColor=none;strokeColor=none;strokeWidth=3;fillColor=#2F5B7C;fontFamily=Helvetica;fontSize=16;fontColor=#FFFFFF;align=center;fontStyle=1;spacing=5;arcSize=7;perimeterSpacing=2;" vertex="1" parent="1">
          <mxGeometry x="399" y="643" width="150" height="70" as="geometry" />
        </mxCell>
      </root>
    </mxGraphModel>
  </diagram>
</mxfile>
